<?xml version="1.0" standalone="no"?><!DOCTYPE svg PUBLIC "-//W3C//DTD SVG 1.1//EN" "http://www.w3.org/Graphics/SVG/1.1/DTD/svg11.dtd"><svg t="1682732145267" class="icon" viewBox="0 0 1024 1024" version="1.1" xmlns="http://www.w3.org/2000/svg" p-id="20072" width="200" height="200" xmlns:xlink="http://www.w3.org/1999/xlink"><path d="M69.376512 957.5424l215.3984-44.1344 16.0768 8.2944A458.5472 458.5472 0 0 0 512.000512 972.8a460.8 460.8 0 1 0-460.8-460.8c0 80.128 20.48 157.184 58.8288 225.4336l9.9328 17.7664-50.5856 202.3424z m10.2912 50.176a51.2 51.2 0 0 1-59.904-62.6176l45.568-182.5792A509.696 509.696 0 0 1 0.000512 512C0.000512 229.2224 229.222912 0 512.000512 0s512 229.2224 512 512-229.2224 512-512 512c-84.5824 0-164.352-20.48-234.6496-56.832l-197.632 40.4992z" fill="#6d5ad6" p-id="20073"></path></svg>